<svg width="193" height="117" viewBox="0 0 193 117" fill="none" xmlns="http://www.w3.org/2000/svg">
<path d="M145.959 91.8564C141.344 93.9576 136.258 94.999 130.792 94.999C120.819 94.999 112.073 91.5826 104.968 84.4779C97.8636 77.3731 94.4479 68.6278 94.4479 58.6532C94.4479 48.6792 97.8636 40.0708 104.968 32.966C112.211 25.7244 120.819 22.3086 130.792 22.3086C140.903 22.3086 149.375 25.8613 156.48 32.966L169.597 20.1222C164.542 15.0664 158.675 11.0767 152.108 8.23547C145.426 5.34318 138.308 4 130.792 4C115.626 4 102.883 9.43222 92.262 20.1222C81.5726 30.8806 76.1387 43.6235 76.1387 58.6532C76.1387 73.8199 81.6045 86.5275 92.262 97.1849C102.919 107.842 115.626 113.308 130.792 113.308C135.575 113.308 140.065 112.679 144.456 111.531C148.942 110.359 153.05 108.767 156.89 106.612C160.834 104.4 164.377 101.794 167.684 98.8243C171.067 95.7861 173.97 92.4029 176.429 88.7134L158.256 82.7016C154.704 86.6638 150.626 89.7311 145.959 91.8564Z" stroke="#FDFDFD" stroke-width="6.68788" stroke-miterlimit="22.9256"/>
<path d="M145.959 91.8571C141.344 93.9582 136.258 95.0001 130.792 95.0001C120.818 95.0001 112.073 91.5838 104.968 84.4791C97.8636 77.3737 94.4479 68.629 94.4479 58.655C94.4479 48.6804 97.8636 40.072 104.968 32.9672C112.21 25.7256 120.818 22.3098 130.792 22.3098C140.903 22.3098 149.375 25.8625 156.48 32.9672L169.597 20.1233C164.542 15.0681 158.675 11.0779 152.108 8.23663C145.426 5.34434 138.307 4.00116 130.792 4.00116C115.626 4.00116 102.883 9.43338 92.262 20.1233C81.572 30.8812 76.1387 43.6246 76.1387 58.655C76.1387 73.8211 81.6046 86.5286 92.262 97.1855C102.919 107.843 115.626 113.309 130.792 113.309C135.575 113.309 140.065 112.679 144.456 111.532C148.942 110.36 153.05 108.768 156.89 106.614C160.834 104.4 164.376 101.795 167.684 98.8255C171.067 95.7873 173.969 92.4035 176.429 88.7145L158.256 82.7027C154.704 86.665 150.626 89.7323 145.959 91.8571Z" fill="#FDFDFD"/>
<path fill-rule="evenodd" clip-rule="evenodd" d="M2 116.649H26.2481V34.1845L2 46.391V116.649Z" fill="#FDFDFD"/>
<path fill-rule="evenodd" clip-rule="evenodd" d="M167.51 95.6694L169.238 90.7556C169.179 92.827 168.759 93.824 168.063 95.5605C171.999 94.8087 173.745 92.1689 176.959 91.6174L174.749 93.162C173.94 93.7157 173.355 94.0378 172.542 94.4928C171.246 95.2183 168.958 96.8728 167.51 95.6694ZM188.12 88.2224C185.504 87.9104 184.779 87.507 181.799 87.6299C184.24 86.547 185.304 87.5328 187.528 87.1928C187.721 84.4004 186.493 79.5747 186.992 78.0385C188.078 80.6138 188.5 85.1259 188.12 88.2224ZM161.169 60.4447C162.156 61.2532 166.586 65.322 166.527 60.6253L163.073 60.7173C161.679 56.4914 165.461 58.1583 166.307 55.964C166.365 57.5395 166.542 56.7529 164.758 57.5692C163.086 58.3351 163.248 58.2537 163.392 60.191C165.593 60.1153 165.029 59.6485 166.87 60.2191C168.922 60.8554 168.805 60.806 171 60.3179C172.334 63.1467 176.563 62.9734 176.552 72.7477C176.548 76.9018 175.997 77.7282 177.266 81.576L176.417 80.5913C172.783 75.5659 160.351 75.4447 157.23 78.8386C163.667 91.4659 170.334 99.3045 170.547 100.691C173.583 98.0096 181.427 96.2299 187.559 91.0226C188.797 89.7905 190.854 88.6129 192.358 87.1636C191.809 83.1784 189.614 76.6908 187.923 73.3996C186.323 70.2868 182.623 67.1555 179.777 62.6631C176.125 56.897 176.583 56.9885 170.139 53.7921C166.979 52.2239 166.367 51.8222 163.766 53.8477C162.025 55.2043 161.548 57.5412 161.169 60.4447Z" fill="#FDFDFD"/>
<path d="M129.971 67.808H142.802L160.975 49.6357H129.971V67.808Z" stroke="#FDFDFD" stroke-width="6.68788" stroke-miterlimit="22.9256"/>
<path d="M129.971 67.8089H142.801L160.974 49.6366H129.971V67.8089Z" fill="#FDFDFD"/>
<path d="M96.3413 35.8353C96.3413 31.4635 95.521 27.3644 93.8816 23.5385C92.2422 19.5757 89.9194 16.2968 87.0501 13.4276C84.1808 10.4214 80.7892 8.17656 76.8023 6.45914C72.8653 4.76304 68.7381 4 64.5054 4H8.8333L27.005 22.3086H64.5054C66.2812 22.3086 68.0491 22.6066 69.697 23.2653C71.4632 23.9711 72.9764 24.9047 74.2062 26.2714C75.4361 27.5007 76.3921 29.0038 77.0755 30.6432C77.7583 32.2832 78.1685 34.059 78.1685 35.8353C78.1685 37.7486 77.7583 39.5249 77.0755 41.1643C76.3921 42.8037 75.4361 44.3068 74.2062 45.5367C72.9764 46.9034 71.4733 47.8595 69.697 48.5423C68.0575 49.3626 66.2812 49.6358 64.5054 49.6358H5.3418V67.8081H64.5054C66.4181 67.8081 68.1944 68.2183 69.9708 68.9011C71.6102 69.5844 72.9764 70.6774 74.2062 71.9073C75.4361 73.1371 76.3921 74.6402 77.0755 76.2796C77.7583 77.9196 78.1685 79.6954 78.1685 81.4711C78.1685 83.248 77.7583 85.0238 77.0755 86.6638C76.3921 88.3038 75.4361 89.8063 74.2062 91.0362C72.9764 92.4029 71.4733 93.359 69.697 94.0418C68.0575 94.7252 66.2812 94.999 64.5054 94.999H23.5147V113.308H64.5054C68.8778 113.308 72.9764 112.487 76.8023 110.848C80.7651 109.072 84.1808 106.886 87.0501 103.879C89.9194 101.01 92.2422 97.7313 93.8816 93.7691C95.521 89.9427 96.3413 85.8441 96.3413 81.4711C96.3413 72.4537 93.1982 64.8025 86.7763 58.6532C93.1982 52.3688 96.3413 44.717 96.3413 35.8353Z" stroke="#FDFDFD" stroke-width="6.68788" stroke-miterlimit="22.9256"/>
<path d="M96.3402 35.8365C96.3402 31.4647 95.5205 27.3656 93.8811 23.5397C92.2416 19.5769 89.9183 16.298 87.0495 13.4287C84.1803 10.4225 80.7886 8.17772 76.8017 6.4603C72.8647 4.7642 68.7375 4.00116 64.5049 4.00116H8.83274L27.005 22.3098H64.5049C66.2806 22.3098 68.0486 22.6077 69.6964 23.2664C71.4626 23.9722 72.9758 24.9058 74.2057 26.2726C75.4355 27.5019 76.3916 29.005 77.0749 30.6444C77.7583 32.2844 78.1679 34.0602 78.1679 35.8365C78.1679 37.7497 77.7583 39.526 77.0749 41.1655C76.3916 42.8049 75.4355 44.308 74.2057 45.5378C72.9758 46.904 71.4727 47.8607 69.6964 48.5435C68.057 49.3637 66.2806 49.637 64.5049 49.637H5.3418V67.8093H64.5049C66.4175 67.8093 68.1939 68.2189 69.9696 68.9022C71.6096 69.585 72.9758 70.6786 74.2057 71.9084C75.4355 73.1377 76.3916 74.6408 77.0749 76.2808C77.7583 77.9202 78.1679 79.6966 78.1679 81.4723C78.1679 83.2492 77.7583 85.025 77.0749 86.665C76.3916 88.3044 75.4355 89.8075 74.2057 91.0373C72.9758 92.4035 71.4727 93.3601 69.6964 94.043C68.057 94.7263 66.2806 95.0001 64.5049 95.0001H23.5141V113.309H64.5049C68.8767 113.309 72.9758 112.488 76.8017 110.849C80.7639 109.073 84.1803 106.887 87.0495 103.881C89.9183 101.011 92.2416 97.7325 93.8811 93.7697C95.5205 89.9438 96.3402 85.8453 96.3402 81.4723C96.3402 72.4549 93.1977 64.8031 86.7757 58.655C93.1977 52.3694 96.3402 44.7181 96.3402 35.8365Z" fill="#FDFDFD"/>
<style>
        path { fill: #000; }
        @media (prefers-color-scheme: dark) {
            path { fill: #FFF; }
        }
    </style>
</svg>
